# xmcd
#
# Track frame offsets:
#	150
#	22435
#	44956
#	64557
#	85553
#	104094
#	123521
#	144518
#	164272
#	185377
#	205669
#	224353
#	246094
#	265985
#	289510
#
# Disc length: 4110 seconds
#
# Revision: 1
# Processed by: cddbd v1.5.1PL0 Copyright (c) Steve Scherf et al.
# Submitted via: audiograbber 1.82.02
#
DISCID=e6100c0f
DTITLE=Various Artist - ChartBusters Male Pop Vol 2
DYEAR=1900
DGENRE=Karaoke
TTITLE0=Justin Timberlake - Like I love you
TTITLE1='Nsync - Gone
TTITLE2=Usher - U got it bad
TTITLE3=Backstreet Boys - Drowning
TTITLE4=Craig David - 7 Days
TTITLE5=Brian McKnight - Love of my life
TTITLE6=Enrigue Igleisias - Hero
TTITLE7=LL Cool J - Luv you better
TTITLE8=Michael Jackson - You rock my world
TTITLE9=P. Diddy - I need a girl
TTITLE10=Sugar Ray - Answer the phone
TTITLE11=R. Kelly - The world's greatest
TTITLE12=Uncle Cracker - In a little while
TTITLE13=Ruff Endz - Someone to love you
TTITLE14=Will Smith - Black Suits comin' ( nod ya head )
EXTD=
EXTT0=
EXTT1=
EXTT2=
EXTT3=
EXTT4=
EXTT5=
EXTT6=
EXTT7=
EXTT8=
EXTT9=
EXTT10=
EXTT11=
EXTT12=
EXTT13=
EXTT14=
PLAYORDER=
